<svg id="visual" viewBox="0 0 675 900" width="675" height="900" xmlns="http://www.w3.org/2000/svg" xmlns:xlink="http://www.w3.org/1999/xlink" version="1.1"><path d="M0 100L28.2 94C56.3 88 112.7 76 169 73C225.3 70 281.7 76 337.8 80.5C394 85 450 88 506.2 85C562.3 82 618.7 73 646.8 68.5L675 64L675 0L646.8 0C618.7 0 562.3 0 506.2 0C450 0 394 0 337.8 0C281.7 0 225.3 0 169 0C112.7 0 56.3 0 28.2 0L0 0Z" fill="#004cbb"></path><path d="M0 172L28.2 164.5C56.3 157 112.7 142 169 139C225.3 136 281.7 145 337.8 146.5C394 148 450 142 506.2 139C562.3 136 618.7 136 646.8 136L675 136L675 62L646.8 66.5C618.7 71 562.3 80 506.2 83C450 86 394 83 337.8 78.5C281.7 74 225.3 68 169 71C112.7 74 56.3 86 28.2 92L0 98Z" fill="#0053ce"></path><path d="M0 253L28.2 247C56.3 241 112.7 229 169 220C225.3 211 281.7 205 337.8 206.5C394 208 450 217 506.2 214C562.3 211 618.7 196 646.8 188.5L675 181L675 134L646.8 134C618.7 134 562.3 134 506.2 137C450 140 394 146 337.8 144.5C281.7 143 225.3 134 169 137C112.7 140 56.3 155 28.2 162.5L0 170Z" fill="#005be1"></path><path d="M0 433L28.2 421C56.3 409 112.7 385 169 374.5C225.3 364 281.7 367 337.8 394C394 421 450 472 506.2 479.5C562.3 487 618.7 451 646.8 433L675 415L675 179L646.8 186.5C618.7 194 562.3 209 506.2 212C450 215 394 206 337.8 204.5C281.7 203 225.3 209 169 218C112.7 227 56.3 239 28.2 245L0 251Z" fill="#0062f5"></path><path d="M0 514L28.2 515.5C56.3 517 112.7 520 169 511C225.3 502 281.7 481 337.8 496C394 511 450 562 506.2 580C562.3 598 618.7 583 646.8 575.5L675 568L675 413L646.8 431C618.7 449 562.3 485 506.2 477.5C450 470 394 419 337.8 392C281.7 365 225.3 362 169 372.5C112.7 383 56.3 407 28.2 419L0 431Z" fill="#196eff"></path><path d="M0 631L28.2 631C56.3 631 112.7 631 169 622C225.3 613 281.7 595 337.8 602.5C394 610 450 643 506.2 661C562.3 679 618.7 682 646.8 683.5L675 685L675 566L646.8 573.5C618.7 581 562.3 596 506.2 578C450 560 394 509 337.8 494C281.7 479 225.3 500 169 509C112.7 518 56.3 515 28.2 513.5L0 512Z" fill="#367cff"></path><path d="M0 856L28.2 856C56.3 856 112.7 856 169 853C225.3 850 281.7 844 337.8 839.5C394 835 450 832 506.2 830.5C562.3 829 618.7 829 646.8 829L675 829L675 683L646.8 681.5C618.7 680 562.3 677 506.2 659C450 641 394 608 337.8 600.5C281.7 593 225.3 611 169 620C112.7 629 56.3 629 28.2 629L0 629Z" fill="#4c8aff"></path><path d="M0 901L28.2 901C56.3 901 112.7 901 169 901C225.3 901 281.7 901 337.8 901C394 901 450 901 506.2 901C562.3 901 618.7 901 646.8 901L675 901L675 827L646.8 827C618.7 827 562.3 827 506.2 828.5C450 830 394 833 337.8 837.5C281.7 842 225.3 848 169 851C112.7 854 56.3 854 28.2 854L0 854Z" fill="#6198ff"></path></svg>